<svg width="211.25px" height="261.230029296875px" xmlns="http://www.w3.org/2000/svg" viewBox="144.375 -55.615014648437494 211.25 261.230029296875" style="background: rgb(255, 255, 255);" preserveAspectRatio="xMidYMid"><defs><filter id="editing-extrusion" x="-100%" y="-100%" width="300%" height="300%"><feFlood result="color1" flood-color="#ffffff"></feFlood><feConvolveMatrix order="3,3" divisor="1" kernelMatrix="1 0 0 0 1 0 0 0 1" in="SourceAlpha" result="extrude"></feConvolveMatrix><feComposite in="color1" in2="extrude" result="comp-extrude" operator="in"></feComposite><feOffset dx="1.5" dy="1.5" in="comp-extrude" result="offset-extrude"></feOffset><feMerge><feMergeNode in="offset-extrude"></feMergeNode><feMergeNode in="SourceGraphic"></feMergeNode></feMerge></filter></defs><g filter="url(#editing-extrusion)"><g transform="translate(179.28000259399414, 102.18499946594238)"><path d="M54.02-34.69L54.02-34.69L54.02-5.51L64.45-5.51L64.45 0L48.16 0L48.16-8.44L48.16-8.44Q37.27 1.64 25.78 1.64L25.78 1.64L25.78 1.64Q17.46 1.64 12.19-3.40L12.19-3.40L12.19-3.40Q6.91-8.44 6.91-14.88L6.91-14.88L6.91-14.88Q6.91-17.58 8.14-20.39L8.14-20.39L8.14-20.39Q9.38-23.20 12.01-26.07L12.01-26.07L12.01-26.07Q14.65-28.95 19.75-30.76L19.75-30.76L19.75-30.76Q24.84-32.58 31.76-32.58L31.76-32.58L31.76-32.58Q40.43-32.58 48.16-31.05L48.16-31.05L48.16-34.69L48.16-34.69Q48.16-36.33 48.05-37.44L48.05-37.44L48.05-37.44Q47.93-38.55 47.23-40.61L47.23-40.61L47.23-40.61Q46.52-42.66 45.12-43.89L45.12-43.89L45.12-43.89Q43.71-45.12 40.84-46.11L40.84-46.11L40.84-46.11Q37.97-47.11 33.98-47.11L33.98-47.11L33.98-47.11Q25.20-47.11 13.95-42.19L13.95-42.19L11.72-47.46L11.72-47.46Q24.38-52.73 34.10-52.73L34.10-52.73L34.10-52.73Q39.73-52.73 43.77-51.21L43.77-51.21L43.77-51.21Q47.81-49.69 49.75-47.81L49.75-47.81L49.75-47.81Q51.68-45.94 52.73-42.95L52.73-42.95L52.73-42.95Q53.79-39.96 53.91-38.44L53.91-38.44L53.91-38.44Q54.02-36.91 54.02-34.69ZM48.16-16.29L48.16-16.29L48.16-25.66L48.16-25.66Q40.78-26.95 32.93-26.95L32.93-26.95L32.93-26.95Q27.54-26.95 23.50-25.78L23.50-25.78L23.50-25.78Q19.45-24.61 17.58-23.14L17.58-23.14L17.58-23.14Q15.70-21.68 14.65-19.63L14.65-19.63L14.65-19.63Q13.59-17.58 13.42-16.58L13.42-16.58L13.42-16.58Q13.24-15.59 13.24-14.77L13.24-14.77L13.24-14.77Q13.24-10.43 16.99-7.21L16.99-7.21L16.99-7.21Q20.74-3.98 25.66-3.98L25.66-3.98L25.66-3.98Q37.15-3.98 48.16-16.29ZM76.41-25.55L76.41-25.55L76.41-25.55Q76.41-36.80 84.14-44.77L84.14-44.77L84.14-44.77Q91.88-52.73 105.47-52.73L105.47-52.73L105.47-52.73Q119.30-52.73 126.91-44.65L126.91-44.65L126.91-44.65Q134.53-36.56 134.53-25.55L134.53-25.55L134.53-25.55Q134.53-14.53 126.91-6.45L126.91-6.45L126.91-6.45Q119.30 1.64 105.47 1.64L105.47 1.64L105.47 1.64Q91.88 1.64 84.14-6.39L84.14-6.39L84.14-6.39Q76.41-14.41 76.41-25.55ZM88.83-40.61L88.83-40.61L88.83-40.61Q82.73-34.34 82.73-25.55L82.73-25.55L82.73-25.55Q82.73-16.76 88.83-10.49L88.83-10.49L88.83-10.49Q94.92-4.22 105.47-4.22L105.47-4.22L105.47-4.22Q116.13-4.22 122.17-10.55L122.17-10.55L122.17-10.55Q128.20-16.88 128.20-25.55L128.20-25.55L128.20-25.55Q128.20-34.34 122.17-40.61L122.17-40.61L122.17-40.61Q116.13-46.88 105.47-46.88L105.47-46.88L105.47-46.88Q94.92-46.88 88.83-40.61Z" fill="#404040"></path></g></g><style>text {
  font-size: 64px;
  font-family: Arial Black;
  dominant-baseline: central;
  text-anchor: middle;
}</style></svg>